<svg id="Layer_1" data-name="Layer 1" xmlns="http://www.w3.org/2000/svg" xmlns:xlink="http://www.w3.org/1999/xlink" viewBox="0 0 238.81 238.81"><defs><style>.cls-1{fill:url(#linear-gradient);}</style><linearGradient id="linear-gradient" x1="564.88" y1="384.18" x2="803.69" y2="384.18" gradientUnits="userSpaceOnUse"><stop offset="0" stop-color="#95ce92"/><stop offset="1" stop-color="#69cade"/></linearGradient></defs><title>logo-tag-rodape</title><path class="cls-1" d="M684.29,264.77a119.41,119.41,0,1,0,119.4,119.41A119.41,119.41,0,0,0,684.29,264.77ZM746.9,436.31a50,50,0,0,1-50-50,50.85,50.85,0,0,1,1-9.94l-7.36-16.88L657,436.31H616.69V356.64h-37V336.31h97.42L668,356.64H637v79.67l43.51-99.69-.14-.31h20.25l-.14.31,7.81,17.89A50,50,0,0,1,782.26,351l-10.4,10.32a35.35,35.35,0,1,0,0,50.08V396.64H746.07l16.16-16.17H788v34.24h0v0A49.94,49.94,0,0,1,746.9,436.31Z" transform="translate(-564.88 -264.77)"/></svg>