<?xml version="1.0" encoding="utf-8"?>
<!-- Generator: Adobe Illustrator 22.1.0, SVG Export Plug-In . SVG Version: 6.00 Build 0)  -->
<svg version="1.1" id="Layer_1" xmlns="http://www.w3.org/2000/svg" xmlns:xlink="http://www.w3.org/1999/xlink" x="0px" y="0px"
	 viewBox="0 0 225 118" style="enable-background:new 0 0 225 118;" xml:space="preserve">
<g>
	<polygon points="97,29.6 106.1,9.3 8.7,9.3 8.7,29.6 45.7,29.6 45.7,109.3 66,109.3 66,29.6 	"/>
	<path d="M217,87.7L217,87.7l0-18.1V53.5h-16.2h-9.6l-16.2,16.2h25.8v14.7c-6.4,6.4-15.2,10.3-25,10.3c-19.5,0-35.4-15.8-35.4-35.4
		S156.4,24,175.9,24c9.7,0,18.6,3.9,25,10.3L211.3,24c-9-9-21.5-14.6-35.4-14.6c-15.5,0-29.4,7.1-38.6,18.2l-7.8-17.9l0.1-0.3h-0.3
		h-19.7h-0.3l0.1,0.3L66,109.3h20l33.5-76.8l7.4,16.9c-0.6,3.2-1,6.5-1,9.9c0,27.6,22.4,50,50,50C192.9,109.3,208,100.8,217,87.7
		L217,87.7z"/>
</g>
</svg>
